<?xml version="1.0" encoding="UTF-8" standalone="yes"?>
<!DOCTYPE svg PUBLIC "-//W3C//DTD SVG 1.1//EN" "http://www.w3.org/Graphics/SVG/1.1/DTD/svg11.dtd">

<svg width="500" height="200" viewBox="0 0 500 200" xmlns="http://www.w3.org/2000/svg" xmlns:xlink="http://www.w3.org/1999/xlink" version="1.1" baseProfile="full">
    <g transform="scale(1,-1) translate(0,-200)">
        <path d="M 67.444365 14.490215 Q 63.522502 9.357188 55.736451 5.579512 Q 47.950400 1.801835 35.665741 1.801835 Q 20.439686 1.801835 10.750378 11.375794 Q 1.061070 20.949753 1.061070 36.233483 L 1.061070 53.766517 Q 1.061070 68.992572 10.462006 78.595369 Q 19.862941 88.198165 34.627601 88.198165 Q 50.026680 88.198165 58.216452 80.902347 Q 66.406225 73.606529 66.117852 61.437219 L 66.002504 61.091172 L 50.142029 61.091172 Q 50.142029 67.781409 46.277841 71.501411 Q 42.413652 75.221413 35.031322 75.221413 Q 27.302946 75.221413 22.573641 69.252107 Q 17.844336 63.282801 17.844336 53.881866 L 17.844336 36.233483 Q 17.844336 26.717199 22.688990 20.719055 Q 27.533644 14.720912 35.665741 14.720912 Q 41.663884 14.720912 45.153189 15.932076 Q 48.642493 17.143239 50.545750 18.988822 L 50.545750 35.253018 L 34.396903 35.253018 L 34.396903 46.903257 L 67.444365 46.903257 Z M 149.688134 37.444647 Q 149.688134 21.930219 139.941152 11.866027 Q 130.194169 1.801835 114.564393 1.801835 Q 98.992290 1.801835 89.302982 11.894864 Q 79.613674 21.987893 79.613674 37.444647 L 79.613674 52.555353 Q 79.613674 67.954432 89.274145 78.076299 Q 98.934616 88.198165 114.449044 88.198165 Q 130.078820 88.198165 139.883477 78.076299 Q 149.688134 67.954432 149.688134 52.555353 Z M 132.904869 52.670702 Q 132.904869 62.475359 128.002540 68.761874 Q 123.100212 75.048390 114.449044 75.048390 Q 105.913225 75.048390 101.155082 68.761874 Q 96.396940 62.475359 96.396940 52.670702 L 96.396940 37.444647 Q 96.396940 27.466966 101.183920 21.180451 Q 105.970899 14.893936 114.564393 14.893936 Q 123.215561 14.893936 128.060215 21.180451 Q 132.904869 27.466966 132.904869 37.444647 Z M 206.785842 21.122777 L 179.563501 21.122777 L 173.911404 3.012998 L 156.320696 3.012998 L 184.638853 86.987002 L 201.883514 86.987002 L 230.086321 3.012998 L 212.495613 3.012998 Z M 183.716061 34.330226 L 202.690956 34.330226 L 193.405369 63.917220 L 193.059323 63.917220 Z M 255.001685 15.932076 L 292.605428 15.932076 L 292.605428 3.012998 L 238.160745 3.012998 L 238.160745 86.987002 L 255.001685 86.987002 Z M 347.569181 24.929290 Q 347.569181 29.773944 344.195226 32.715342 Q 340.821270 35.656739 332.343126 38.252089 Q 317.809164 42.635347 310.282648 48.575816 Q 302.756132 54.516285 302.756132 64.782337 Q 302.756132 75.106064 311.234276 81.652115 Q 319.712421 88.198165 332.862196 88.198165 Q 346.819414 88.198165 355.326395 81.161882 Q 363.833377 74.125599 363.545005 62.706057 L 363.429656 62.360010 L 347.107786 62.360010 Q 347.107786 68.646526 343.301272 72.020481 Q 339.494758 75.394437 332.631498 75.394437 Q 326.402657 75.394437 322.999865 72.395365 Q 319.597072 69.396293 319.597072 64.724663 Q 319.597072 60.456753 323.288237 57.717217 Q 326.979402 54.977680 336.034291 51.920934 Q 349.876160 47.999072 357.143141 41.683719 Q 364.410122 35.368366 364.410122 25.044639 Q 364.410122 14.259517 355.989652 8.030676 Q 347.569181 1.801835 333.727313 1.801835 Q 320.173816 1.801835 310.455671 8.549746 Q 300.737526 15.297657 301.025898 28.678130 L 301.141247 29.024177 L 317.463117 29.024177 Q 317.463117 21.584172 321.846376 18.066031 Q 326.229634 14.547889 333.727313 14.547889 Q 340.475224 14.547889 344.022203 17.373937 Q 347.569181 20.199985 347.569181 24.929290 Z" transform="scale(1.000000,1.000000) translate(106.000000,55.000000)" fill="#3d3d3d" opacity="0.939524"></path>
        <path d="M 37.224083 6.165064 L 71.865099 26.165064 L 70.615099 24.000000 L 70.615099 64.000000 L 71.865099 61.834936 L 37.224083 81.834936 L 39.724083 81.834936 L 5.083067 61.834936 L 6.333067 64.000000 L 6.333067 24.000000 L 5.083067 26.165064 L 39.724083 6.165064 L 37.224083 1.834936 L 2.583067 21.834936 C 1.809564 22.281518 1.333067 23.106836 1.333067 24.000000 L 1.333067 64.000000 C 1.333067 64.893164 1.809564 65.718482 2.583067 66.165064 L 37.224083 86.165064 C 37.997586 86.611645 38.950580 86.611645 39.724083 86.165064 L 74.365099 66.165064 C 75.138602 65.718482 75.615099 64.893164 75.615099 64.000000 L 75.615099 24.000000 C 75.615099 23.106836 75.138602 22.281518 74.365099 21.834936 L 39.724083 1.834936 L 37.224083 6.165064 Z" transform="scale(1.000000,1.000000) translate(15.000000,56.000000)" fill="#ffea00" opacity="1.000000"></path>
        <path d="M 1.974083 4.000000 L 1.974083 44.000000 C 1.974083 45.380712 3.093371 46.500000 4.474083 46.500000 C 5.854795 46.500000 6.974083 45.380712 6.974083 44.000000 L 6.974083 4.000000 C 6.974083 2.619288 5.854795 1.500000 4.474083 1.500000 C 3.093371 1.500000 1.974083 2.619288 1.974083 4.000000 Z" transform="scale(1.000000,1.000000) translate(49.000000,56.000000)" fill="#ffea00" opacity="1.000000"></path>
        <path d="M 3.252519 6.181234 L 37.734153 25.492107 C 38.938815 26.166759 40.462300 25.737100 41.136951 24.532438 C 41.811602 23.327775 41.381943 21.804291 40.177281 21.129640 L 5.695647 1.818766 C 4.490985 1.144115 2.967501 1.573774 2.292849 2.778436 C 1.618198 3.983098 2.047857 5.506583 3.252519 6.181234 Z" transform="scale(1.000000,1.000000) translate(49.000000,96.000000)" fill="#ffea00" opacity="1.000000"></path>
        <path d="M 37.252519 1.818766 L 2.770885 21.129640 C 1.566223 21.804291 1.136564 23.327775 1.811215 24.532438 C 2.485867 25.737100 4.009351 26.166759 5.214013 25.492107 L 39.695647 6.181234 C 40.900310 5.506583 41.329968 3.983098 40.655317 2.778436 C 39.980666 1.573774 38.457181 1.144115 37.252519 1.818766 Z" transform="scale(1.000000,1.000000) translate(15.000000,96.000000)" fill="#ffea00" opacity="1.000000"></path>
    </g>
</svg>